<?xml version="1.0" encoding="utf-8"?>
<!-- Generator: Adobe Illustrator 18.0.0, SVG Export Plug-In . SVG Version: 6.00 Build 0)  -->
<!DOCTYPE svg PUBLIC "-//W3C//DTD SVG 1.0//EN" "http://www.w3.org/TR/2001/REC-SVG-20010904/DTD/svg10.dtd">
<svg version="1.0" id="Layer_1" xmlns="http://www.w3.org/2000/svg" xmlns:xlink="http://www.w3.org/1999/xlink" x="0px" y="0px"
	 width="573.3px" height="117.1px" viewBox="422 298.2 573.3 117.1" enable-background="new 422 298.2 573.3 117.1"
	 xml:space="preserve">
<g>
	<path d="M476.3,303.3h-19.5c-0.2,4.2-1,7.5-2.2,10c-1.2,2.2-3,4-5.5,5.2c-2.5,1-6,1.7-10.7,1.7h-5.5v17h21.5v53h-27v21.2h75.7
		v-21.2h-26.7V303.3z"/>
	<path d="M568.8,303.3h-19.5c-0.3,4.2-1,7.5-2.2,10c-1.2,2.2-3,4-5.5,5.2c-2.5,1-6,1.7-10.7,1.7h-5.5v17h21.5v53h-27.2v21.2h75.7
		v-21.2h-26.5V303.3z"/>
	<polygon points="662,342.3 633.8,342.3 633.8,303.3 611.8,303.3 611.8,411.5 633.8,411.5 633.8,362 662,362 662,411.5 684,411.5 
		684,303.3 662,303.3 	"/>
	<path d="M748.5,344c-1.7-2.2-4.2-4.2-8-5.7c-3.5-1.5-7.2-2.5-11-2.5c-6,0-11.5,1.5-16.5,4.5c-4.7,3-8.7,7.2-11.5,13
		c-2.7,5.7-4.2,12.7-4.2,21c0,8.2,1.5,15.2,4.2,21c2.7,5.7,6.5,10.2,11.2,13.2s10,4.5,15.7,4.5c4.2,0,8-0.7,11.5-2.2
		c3.5-1.5,6.2-3.7,8.2-7h0.5v8h19.7v-74.5H748v6.7H748.5z M745,389.3c-2.7,3.5-6.5,5.2-11,5.2c-4.5,0-8.2-1.7-11-5.2
		c-2.7-3.5-4.2-8.5-4.2-15c0-6.5,1.5-11.5,4.2-15c2.7-3.5,6.5-5.2,11-5.2c4.5,0,8.2,1.7,11,5.2c2.7,3.5,4.2,8.5,4.2,15
		C749.3,380.8,747.8,385.8,745,389.3z"/>
	<path d="M817.5,394.5c-4.7,0-8.2-1.7-11-5.2c-2.7-3.5-4-8.5-4-15c0-6.5,1.2-11.7,4-15c2.7-3.5,6.5-5.2,11-5.2
		c6.7,0,10.7,3.2,11.7,9.5h21c-1-9.7-4.5-16.7-10.7-21.2c-6-4.2-13.5-6.5-22.2-6.5c-6.7,0-12.7,1.5-18.2,4.5c-5.5,3-10,7.2-13,13.2
		c-3.2,5.7-4.7,12.7-4.7,21c0,8.2,1.5,15.2,4.7,21c3.2,5.7,7.5,10.2,13,13.2c5.5,3,11.5,4.5,18.2,4.5c9,0,16.5-2.5,23-7.5
		c6.2-5,10.2-12.5,11.5-22.2h-20C830.3,390.8,825.5,394.5,817.5,394.5z"/>
	<polygon points="924,337 902.8,337 885.3,362 884.8,362 884.8,303.3 864.3,303.3 864.3,411.5 884.8,411.5 884.8,393 893.5,379.5 
		906.8,411.5 928.3,411.5 907.3,362 	"/>
	<path d="M987.5,373.5c-4.2-3.5-10.5-6.2-18.5-8.2c-5.5-1.2-9.2-2.5-11.2-3.7c-2-1.2-3.2-3-3.2-4.7c0-1.5,0.7-2.7,2.5-3.7
		c1.7-1,4-1.5,6.5-1.5c3,0,5.5,0.5,7,1.7c1.7,1.2,2.5,3,2.5,5.2h17.7c-0.3-7.5-2.5-13.2-7-17s-11.2-5.7-20.5-5.7c-5.2,0-10,1-14,2.7
		c-4.2,1.7-7.2,4.5-9.5,7.7c-2.2,3.2-3.2,7-3.2,11.2c0,11.5,6.7,19,20.5,22.5c7,1.7,12,3.2,14.5,4.5s3.7,3,3.7,5s-1,3.7-3,4.7
		c-2,1.2-4.5,1.7-7.5,1.7c-3.2,0-6-0.7-8.2-2.5c-2.2-1.7-3.5-4-3.7-6.7h-19.2c0.5,7.7,3.5,14,9.2,18.7s13,7.2,21.7,7.2
		c8.5,0,15.5-2.2,21-6.5c5.5-4.2,8.2-10,8.2-17.5C994,382.3,992,377,987.5,373.5z"/>
</g>
</svg>
